<?xml version="1.0" encoding="utf-8"?>
<!-- Generator: Adobe Illustrator 15.0.0, SVG Export Plug-In . SVG Version: 6.00 Build 0)  -->
<!DOCTYPE svg PUBLIC "-//W3C//DTD SVG 1.1//EN" "http://www.w3.org/Graphics/SVG/1.1/DTD/svg11.dtd">
<svg version="1.1" id="Layer_1" xmlns="http://www.w3.org/2000/svg" xmlns:xlink="http://www.w3.org/1999/xlink" x="0px" y="0px"
	 width="2500px" height="2500px" viewBox="0 0 2500 2500" enable-background="new 0 0 2500 2500" xml:space="preserve">
<g>
	<path fill="#E6E6E6" d="M531.319,636.219L353.426,932.708l94.874-30.829l-173.146,313.09l104.355-54.551l-182.64,332.052
		l125.703-59.297l-211.096,358.159h1017.556v-128.076h23.722l135.196,128.076h268.033l-194.494-194.494l109.102-109.102
		l-2.387-310.717H1166.98l-33.202,23.722v-83.02l310.716-308.343l296.477,294.115h64.058l265.646-260.913l265.646,263.286h45.07
		l-360.547-358.16l-279.888,282.261l-386.59-389.015l-574.003,571.643l-175.52-315.477l92.5,42.696L531.319,636.219L531.319,636.219
		z M770.871,1224.45l-37.949,37.949l-68.792-99.621L770.871,1224.45z M913.188,1333.552v400.856l-147.052-256.153L913.188,1333.552z
		 M1245.253,1302.723v161.305h-116.222v-49.83L1245.253,1302.723L1245.253,1302.723z"/>
	<path fill="#E6E6E6" d="M2058.82,1177.02v142.304h-241.925v80.646h246.685v151.798h-246.685v78.272h246.685v163.666h-469.647
		V1177.02H2058.82z M2182.176,1793.706h206.35V1177.02h-206.35V1793.706L2182.176,1793.706z"/>
</g>
</svg>
