<?xml version="1.0" encoding="utf-8"?>
<!-- Generator: Adobe Illustrator 15.0.0, SVG Export Plug-In . SVG Version: 6.00 Build 0)  -->
<!DOCTYPE svg PUBLIC "-//W3C//DTD SVG 1.1//EN" "http://www.w3.org/Graphics/SVG/1.1/DTD/svg11.dtd">
<svg version="1.1" id="Layer_1" xmlns="http://www.w3.org/2000/svg" xmlns:xlink="http://www.w3.org/1999/xlink" x="0px" y="0px"
	 width="720px" height="288px" viewBox="0 0 720 288" enable-background="new 0 0 720 288" xml:space="preserve">
<g>
	<path fill-rule="evenodd" clip-rule="evenodd" fill="#E6E6E6" d="M479.361,144.92c-3.427,0.038-7.327-0.836-11.28-0.96
		c-3.552-0.111-8.812-0.307-10.8,1.2c-2.28,1.728-2.755,11.105-3.12,14.88c-1.19,12.293,0.14,23.343,3.6,31.92
		c1.639,4.063,4.097,8.68,6.96,10.801c1.639,1.213,6.35,1.859,5.76,5.279c-0.766,4.443-12.076,0.404-13.92-0.72
		c-14.739-8.983-16.121-37.15-12.96-60.72c-13.952,2.056-41.171,7.594-36.72-12.48c2.135,0.007,2.604,1.612,5.28,1.92
		c5.092,0.586,11.432-0.554,17.279-0.96c5.796-0.402,11.27-2.239,16.32-1.92c3.23-9.488,5.376-20.766,9.12-31.92
		c1.595-4.75,3.541-9.693,5.28-15.12c2.342-7.31,4.207-15.941,14.88-14.88c7.706,3.109,2.149,13.369-0.48,19.2
		c-3.994,8.857-7.267,18.021-10.56,27.36c-1.684,4.774-3.966,9.51-3.601,14.88c3.257,2.192,7.95,2.172,11.761,3.84
		C475.724,138.08,479.386,139.785,479.361,144.92z"/>
	<path fill-rule="evenodd" clip-rule="evenodd" fill="#E6E6E6" d="M99.92,217.4c-1.2,0-2.4,0-3.6,0
		c-9.785,0.122-17.181-2.479-20.16-9.84c-1.013-2.504-2.364-11.411,0.96-12.24c2.339-0.584,5.46,3.865,6.96,5.04
		c2.087,1.634,4.984,3.331,7.68,4.56c4.468,2.037,15.271,6.473,18.48,1.2c3.228-5.303-3.226-12.281-7.2-15.36
		c-4.731-3.665-10.278-5.975-14.4-7.92c-10.647-5.021-20.03-10.216-28.32-16.56c-7.84-6-16.089-14.58-19.68-25.2
		c-4.16-12.303-2.342-27.163,3.12-36.96c4.987-8.945,13.428-16.21,23.041-21.6c10.095-5.661,21.307-8.986,35.28-9.6
		c13.794-0.606,28.521,2.178,38.16,6.24c8.982,3.785,20.94,11.258,21.6,23.28c0.283,5.153-1.498,8.835-5.76,9.36
		c-1.847-2.21-0.717-6.434-1.92-8.88c-2.088-4.248-8.22-7.038-13.2-8.88c-16.385-6.062-40.844-6.453-57.6-1.44
		c-11.109,3.324-20.541,8.143-28.32,16.08c-7.167,7.313-11.829,21.421-3.6,32.16c9.312,12.152,28.697,20.113,43.92,27.36
		c7.667,3.65,15.41,7.605,21.6,13.92c5.658,5.772,10.856,17.063,5.28,26.16C118.407,214.533,109.587,216.456,99.92,217.4z"/>
	<path fill-rule="evenodd" clip-rule="evenodd" fill="#E6E6E6" d="M552.801,156.92c-2.224,0.209-2.603,2.83-3.6,4.32
		c-2.995,4.472-6.68,9.811-10.8,13.92c-4.865,4.852-18.285,10.834-24.24,3.84c-1.073-1.26-1.573-5.066-3.601-5.52
		c-2.263-0.507-5.265,3.071-7.92,4.319c-9.228,4.34-17.307-1.037-18.24-10.08c-1.409-13.651,7.038-23.6,16.561-26.64
		c3.603-1.15,11.346-2.372,12.48-0.24c0.628,1.181-0.638,3.595-1.2,4.08c-1.161,1.001-4.068,1.044-5.28,1.44
		c-5.012,1.641-10.399,7.472-11.76,12.72c-1.054,4.063-0.922,9.056,2.399,10.32c4.063,1.547,9.346-2.356,11.04-4.08
		c3.539-3.602,4.63-8.281,6-14.88c5.318-1.886,9.12,1.792,9.12,6.72c0,4.021-4.577,9.36-0.24,12.24
		c5.228,3.471,13.35-3.043,16.32-6.48c7.506-8.685,12.69-20.501,15.601-34.08c1.537-7.173,3.01-12.48,5.04-19.68
		c2.302-8.167,4.294-20.483,12.72-21.84c12.753-2.054,3.535,14.179,1.92,18c-5.63,13.316-9.303,27.571-11.76,44.88
		c-0.433,3.043-0.909,8.161,1.68,8.64c2.082,0.386,5.018-3.225,6.72-4.56c4.064-3.188,10.217-7.095,16.801-4.32
		c5.595,2.357,8.859,7.523,9.359,13.2c1.307,14.844-4.655,30.34-13.92,36.96c-2.873,2.053-7.367,4.059-11.28,3.84
		c-2.038-0.113-7.037-1.915-5.52-4.8c0.755-1.435,5.421-1.45,6.96-2.16c7.29-3.36,13.334-17.596,12.479-29.52
		c-0.303-4.231-1.839-9.343-6.72-9.601c-3.764-0.198-6.438,2.525-8.16,4.561c-5.386,6.367-8.519,13.423-9.359,24.24
		c-0.312,4.003-1.011,7.002-3.841,7.199c-6.085,0.426-5.04-10.184-5.039-16.319C553.521,170.415,553.36,163.109,552.801,156.92z"/>
	<path fill-rule="evenodd" clip-rule="evenodd" fill="#E6E6E6" d="M368.001,152.84c13.606-0.949,7.559,8.253,5.279,16.561
		c-1.01,3.683-2.876,12.828,2.881,13.439c3.645,0.388,7.077-3.455,8.64-5.76c0.841-1.24,1.305-3.336,3.12-3.12
		c2.48,0.296,1.644,5.167,0.479,7.44c-2.752,5.376-12.568,12.342-20.16,7.439c-3.44-2.222-4.476-5.615-5.279-11.279
		c-1.813-0.15-2.709,1.87-3.6,2.88c-3.726,4.22-13.16,12.115-22.08,7.92c-2.118-0.996-3.935-6.235-6.48-6.48
		c-3.202-0.308-5.253,4.483-7.2,6.48c-5.208,5.342-13.519,14.47-25.44,12.72c-8.846-1.299-14.407-12.282-15.12-22.08
		c-0.618-8.484,0.533-16.64,1.68-24.72c2.193-15.447,5.821-27.737,9.6-42.96c1.619-6.52,3.735-16.347,7.68-18.48
		c2.303-1.245,9.552-2.311,11.76,0.24c1.856,2.146,0.658,6.839-0.48,10.32c-5.29,16.185-10.372,31.355-13.68,49.201
		c-1.961,10.578-4.817,25.376,0,34.08c3.328,6.012,9.781,4.841,14.4,0.479c3.724-3.516,6.5-8.083,8.88-12.479
		c2.478-4.576,3.462-9.797,6-15.12c5.23-10.97,15.523-20.909,32.4-19.68c2.914,0.212,5.976,1.046,6,3.12
		c0.045,3.686-7.94,2.959-11.04,3.84c-3.856,1.096-9.499,5.647-11.76,9.12c-3.229,4.959-8.822,21.595,0.96,22.561
		c3.643,0.359,8.444-3.665,10.56-5.521C361.652,168.043,364.692,159.769,368.001,152.84z"/>
	<path fill-rule="evenodd" clip-rule="evenodd" fill="#E6E6E6" d="M680.722,194.36c0.033,3.496-5.47,6.043-9.36,6.479
		c-16.046,1.802-25.854-8.306-28.8-19.92c-18.761,1.521-33.984-8.828-35.28-27.84c-1.012-14.84,3.185-28.863,7.68-40.08
		c2.312-5.769,5.13-11.525,12-12.24c11.116-1.157,2.544,12.015,0.96,15.84c-2.125,5.133-3.341,10.042-4.56,14.88
		c-3.509,13.93-6.975,34.166,5.52,40.56c2.396,1.226,11.064,3.458,14.4,0.96c1.807-1.353,1.556-4.198,2.4-6.479
		c2.886-7.802,10.109-17.974,18.239-19.92c5.029-1.204,13.937-0.278,16.08,3.6c2.74,4.958,0.23,11.342-2.16,14.64
		c-3.371,4.654-9.297,8.737-15.359,11.28c-2.127,0.892-5.343,1.316-6,2.64c-0.992,1.997,1.223,6.407,2.16,8.16
		c2.568,4.808,7.345,9.521,15.359,8.4C676.346,194.992,678.767,192.188,680.722,194.36z M661.521,158.601
		c-2.176,3.667-3.726,7.896-4.08,11.76c3.629-1.576,7.461-3.838,10.32-6.72c2.866-2.89,6.022-7.296,4.8-12.721
		C667.366,149.08,663.861,154.656,661.521,158.601z"/>
	<path fill-rule="evenodd" clip-rule="evenodd" fill="#E6E6E6" d="M218.96,131c3.056,1.415,4.512,6.153,3.36,11.28
		c-0.682,3.036-3.218,5.035-2.64,7.68c0.703,3.214,3.346,2.017,5.76,4.561c6.947,7.318-0.596,23.815-3.12,31.68
		c-0.881,2.744-1.035,6.593,1.2,7.2c3.421,0.929,7.996-5.089,9.12-6.96c2.725-4.535,3.336-10.426,5.04-15.36
		c6.696-1.86,6.443,3.006,5.04,8.16c-0.739,2.716-1.099,5.379-1.92,7.2c-2.426,5.38-8.237,11.218-13.2,13.2
		c-9.255,3.696-16.851-1.249-16.08-12c0.318-4.438,1.822-9.051,2.88-13.44c1.035-4.296,2.939-9.292,0.48-13.44
		c-2.976,1.413-4.354,5.425-6.24,8.641c-5.005,8.534-13.471,18.992-25.44,20.16c-5.325,0.52-10.854-0.333-13.44-3.601
		c-1.072-1.354-0.996-3.374-2.16-5.04c-2.09,0.396-3.29,2.424-4.8,3.84c-4.69,4.398-15.96,11.28-24.24,6.24
		c-10.079-6.134-4.977-33.332,0.48-41.28c2.3-3.349,7.181-6.519,12.48-4.079c1.327,4.604-0.633,9.53-1.92,14.64
		c-1.201,4.767-3.31,10.206-2.64,15.36c0.379,2.916,2.471,6.325,5.28,6.479c3.283,0.181,6.134-3.34,8.16-5.52
		c4.656-5.012,8.078-9.34,10.8-16.561c1.199-3.182,2.222-7.436,4.56-9.12c3.252-2.343,9.854-1.237,10.32,2.641
		c0.328,2.722-2.299,5.762-3.36,8.64c-1.696,4.601-5.43,15.309,0.96,17.521c1.711,0.592,4.456,0.08,6-0.48
		c6.129-2.226,11-9.892,14.88-16.08c1.371-2.187,3.187-4.644,3.12-6.96c-0.093-3.19-3.455-5.899-3.84-8.88
		C202.66,138.186,210.091,131.031,218.96,131z M213.68,146.12c2.538-1.123,3.57-7.715,1.44-9.84
		C212.215,137.375,211.882,143.716,213.68,146.12z"/>
	<path fill-rule="evenodd" clip-rule="evenodd" fill="#E6E6E6" d="M215.12,136.28c2.13,2.125,1.098,8.717-1.44,9.84
		C211.882,143.716,212.215,137.375,215.12,136.28z"/>
	<path fill-rule="evenodd" clip-rule="evenodd" fill="#E6E6E6" d="M672.562,150.92c1.223,5.425-1.934,9.831-4.8,12.721
		c-2.859,2.882-6.691,5.144-10.32,6.72c0.354-3.864,1.904-8.093,4.08-11.76C663.861,154.656,667.366,149.08,672.562,150.92z"/>
</g>
</svg>
